<svg id="download-on-the-app-store-apple-2" xmlns="http://www.w3.org/2000/svg" xmlns:xlink="http://www.w3.org/1999/xlink" width="135" height="57.786" viewBox="0 0 195 57.786">
  <defs>
    <linearGradient id="linear-gradient" x1="-0.474" y1="0.887" x2="-0.474" y2="1.082" gradientUnits="objectBoundingBox">
      <stop offset="0" stop-color="#1a1a1a" stop-opacity="0.102"/>
      <stop offset="0.123" stop-color="#212121" stop-opacity="0.153"/>
      <stop offset="0.308" stop-color="#353535" stop-opacity="0.227"/>
      <stop offset="0.532" stop-color="#575757" stop-opacity="0.318"/>
      <stop offset="0.783" stop-color="#858585" stop-opacity="0.42"/>
      <stop offset="1" stop-color="#b3b3b3" stop-opacity="0.51"/>
    </linearGradient>
  </defs>
  <path id="Path_1306" data-name="Path 1306" d="M188.165,57.786H6.835A6.832,6.832,0,0,1,0,50.952V6.833A6.832,6.832,0,0,1,6.835,0h181.33A6.832,6.832,0,0,1,195,6.833V50.952a6.832,6.832,0,0,1-6.835,6.833Z" fill="#a6a6a6"/>
  <path id="Path_1307" data-name="Path 1307" d="M209.219,66.078a5.514,5.514,0,0,1-5.524,5.523H22.364a5.54,5.54,0,0,1-5.555-5.523V21.958A5.567,5.567,0,0,1,22.364,16.4h181.33a5.547,5.547,0,0,1,5.555,5.554Z" transform="translate(-15.498 -15.125)"/>
  <path id="Path_1308" data-name="Path 1308" d="M261.647,134.826a8.348,8.348,0,0,1,3.995-7.02,8.557,8.557,0,0,0-6.773-3.651c-2.84-.312-5.587,1.716-7.053,1.716s-3.714-1.685-6.117-1.622a9.064,9.064,0,0,0-7.584,4.618c-3.277,5.679-.843,14.01,2.31,18.565,1.561,2.247,3.4,4.743,5.805,4.649,2.341-.094,3.215-1.5,6.055-1.5,2.809,0,3.62,1.5,6.086,1.435,2.528-.031,4.12-2.246,5.618-4.524a18.385,18.385,0,0,0,2.559-5.242A8.118,8.118,0,0,1,261.647,134.826Zm-4.619-13.7a8.24,8.24,0,0,0,1.873-5.9,8.485,8.485,0,0,0-5.431,2.808,7.837,7.837,0,0,0-1.935,5.679A6.919,6.919,0,0,0,257.028,121.129Z" transform="translate(-218.109 -106.246)" fill="#fff"/>
  <path id="Path_1309" data-name="Path 1309" d="M1264.556,0H1167.43l38.045,57.786h59.08a6.832,6.832,0,0,0,6.835-6.833V6.833A6.832,6.832,0,0,0,1264.556,0Z" transform="translate(-1076.391)" fill="url(#linear-gradient)"/>
  <path id="Path_1310" data-name="Path 1310" d="M802.654,157.3h-3.277l-1.81-5.648h-6.242l-1.717,5.648h-3.183l6.18-19.22h3.839Zm-5.618-8.019-1.623-5.023c-.187-.5-.5-1.716-.968-3.619h-.062c-.187.811-.5,2.028-.905,3.619l-1.592,5.023Zm21.5.9a7.839,7.839,0,0,1-1.935,5.585,5.643,5.643,0,0,1-4.276,1.841,4.294,4.294,0,0,1-3.964-1.966v7.27h-3.059V147.973c0-1.466-.031-3-.125-4.555H807.9l.187,2.184h.063a5.474,5.474,0,0,1,8.77-.562A7.882,7.882,0,0,1,818.54,150.189Zm-3.121.125a5.848,5.848,0,0,0-.905-3.339,3.165,3.165,0,0,0-2.684-1.373,3.223,3.223,0,0,0-2.06.749,3.406,3.406,0,0,0-1.217,2,4.885,4.885,0,0,0-.156.936v2.309a3.7,3.7,0,0,0,.936,2.559,3.117,3.117,0,0,0,2.4,1.03,3.155,3.155,0,0,0,2.715-1.342A5.76,5.76,0,0,0,815.419,150.313Zm19.1-.125a7.839,7.839,0,0,1-1.935,5.585,5.643,5.643,0,0,1-4.276,1.841,4.294,4.294,0,0,1-3.964-1.966v7.27h-3.09V147.973c0-1.466-.031-3-.125-4.555h2.715l.187,2.184h.062a5.474,5.474,0,0,1,8.77-.562A7.9,7.9,0,0,1,834.519,150.189Zm-3.152.125a5.848,5.848,0,0,0-.905-3.339,3.165,3.165,0,0,0-2.684-1.373,3.224,3.224,0,0,0-2.06.749,3.406,3.406,0,0,0-1.217,2,4.144,4.144,0,0,0-.156.936v2.309a3.7,3.7,0,0,0,.936,2.559,3.117,3.117,0,0,0,2.4,1.03,3.155,3.155,0,0,0,2.715-1.342A5.76,5.76,0,0,0,831.367,150.313ZM852.34,151.9a5.106,5.106,0,0,1-1.717,3.994,7.564,7.564,0,0,1-5.243,1.685,9.46,9.46,0,0,1-4.994-1.186l.718-2.559a8.463,8.463,0,0,0,4.463,1.186,4.2,4.2,0,0,0,2.715-.78,2.532,2.532,0,0,0,.967-2.091,2.684,2.684,0,0,0-.811-1.966,7.513,7.513,0,0,0-2.653-1.5q-5.056-1.872-5.056-5.523a4.809,4.809,0,0,1,1.779-3.869,7.112,7.112,0,0,1,4.713-1.5,9.548,9.548,0,0,1,4.37.9l-.78,2.5a7.557,7.557,0,0,0-3.683-.874,3.812,3.812,0,0,0-2.559.811,2.341,2.341,0,0,0-.78,1.747,2.291,2.291,0,0,0,.874,1.872,9.966,9.966,0,0,0,2.809,1.5,9.23,9.23,0,0,1,3.652,2.34A4.521,4.521,0,0,1,852.34,151.9Zm10.206-6.147h-3.4v6.74c0,1.716.593,2.559,1.81,2.559a4.376,4.376,0,0,0,1.373-.156l.094,2.34a7.138,7.138,0,0,1-2.4.343,3.646,3.646,0,0,1-2.84-1.123,5.482,5.482,0,0,1-1.03-3.744v-6.989h-2.029v-2.309h2.029V140.89l3.027-.9v3.463h3.4Zm15.293,4.493A7.618,7.618,0,0,1,876,155.493a6.548,6.548,0,0,1-5.087,2.122,6.265,6.265,0,0,1-4.869-2.028,7.332,7.332,0,0,1-1.81-5.117A7.518,7.518,0,0,1,866.1,145.2a6.474,6.474,0,0,1,5.025-2.059,6.333,6.333,0,0,1,4.9,2.028A7.2,7.2,0,0,1,877.839,150.251Zm-3.183.062a6.374,6.374,0,0,0-.811-3.276,3.071,3.071,0,0,0-2.778-1.654,3.131,3.131,0,0,0-2.84,1.654,6.234,6.234,0,0,0-.811,3.339,6.374,6.374,0,0,0,.811,3.276,3.172,3.172,0,0,0,5.587-.031A6.279,6.279,0,0,0,874.655,150.313Zm13.2-4.181a5.083,5.083,0,0,0-.968-.094,2.852,2.852,0,0,0-2.5,1.217,4.686,4.686,0,0,0-.78,2.746v7.27h-3.09v-9.485c0-1.466-.031-2.9-.094-4.368h2.684l.125,2.652h.094a4.638,4.638,0,0,1,1.529-2.184,3.864,3.864,0,0,1,2.216-.749,6.091,6.091,0,0,1,.78.062Zm13.795,3.588a7.114,7.114,0,0,1-.125,1.4h-9.238a3.97,3.97,0,0,0,1.342,3.151,4.522,4.522,0,0,0,3.027.967,10.259,10.259,0,0,0,3.745-.655l.468,2.122a11.786,11.786,0,0,1-4.65.842,6.636,6.636,0,0,1-5.056-1.9,7.064,7.064,0,0,1-1.841-5.086,7.827,7.827,0,0,1,1.716-5.211,5.829,5.829,0,0,1,4.838-2.215,5.142,5.142,0,0,1,4.525,2.215,7.3,7.3,0,0,1,1.248,4.368Zm-2.934-.811a4.2,4.2,0,0,0-.593-2.371,2.647,2.647,0,0,0-2.465-1.279,2.937,2.937,0,0,0-2.466,1.248,4.674,4.674,0,0,0-.905,2.4ZM790.451,131.28a15.468,15.468,0,0,1-2.216-.125v-9.3a18.522,18.522,0,0,1,2.622-.187c3.527,0,5.15,1.747,5.15,4.587C796.006,129.5,794.071,131.28,790.451,131.28Zm.5-8.425a6.9,6.9,0,0,0-1.217.094V130a8.276,8.276,0,0,0,1.03.031c2.31,0,3.62-1.31,3.62-3.775A3.072,3.072,0,0,0,790.95,122.856Zm10.112,8.487a3.239,3.239,0,0,1-3.277-3.495,3.311,3.311,0,0,1,3.4-3.588,3.207,3.207,0,0,1,3.277,3.495A3.345,3.345,0,0,1,801.062,131.343Zm.063-5.991c-1.093,0-1.81,1.03-1.81,2.465,0,1.4.718,2.434,1.779,2.434s1.779-1.092,1.779-2.465C802.9,126.382,802.186,125.352,801.125,125.352Zm14.7-.967-2.122,6.8h-1.4l-.874-2.964c-.219-.718-.406-1.466-.562-2.215h-.031a13.55,13.55,0,0,1-.562,2.215l-.936,2.964h-1.4l-2-6.8h1.561l.78,3.245c.187.78.343,1.5.468,2.184h.031c.125-.562.281-1.279.562-2.184l.967-3.245h1.248l.936,3.183q.328,1.17.562,2.247h.031a18.1,18.1,0,0,1,.468-2.247l.843-3.183Zm7.834,6.8h-1.5v-3.9c0-1.217-.468-1.81-1.373-1.81a1.58,1.58,0,0,0-1.529,1.654v4.056h-1.529v-4.867c0-.593,0-1.248-.063-1.935h1.342l.062,1.061h.031a2.478,2.478,0,0,1,2.153-1.186c1.436,0,2.372,1.092,2.372,2.871Zm4.182,0h-1.529v-9.953h1.529Zm5.524.156a3.239,3.239,0,0,1-3.277-3.495,3.311,3.311,0,0,1,3.4-3.588,3.207,3.207,0,0,1,3.277,3.495A3.345,3.345,0,0,1,833.364,131.343Zm.063-5.991c-1.092,0-1.81,1.03-1.81,2.465,0,1.4.718,2.434,1.779,2.434s1.779-1.092,1.779-2.465C835.175,126.382,834.488,125.352,833.427,125.352Zm9.3,5.835-.125-.78h-.031a2.336,2.336,0,0,1-2,.936,1.977,1.977,0,0,1-2.091-2c0-1.685,1.467-2.558,3.995-2.558v-.125c0-.9-.468-1.342-1.4-1.342a3.123,3.123,0,0,0-1.779.5l-.312-1a4.209,4.209,0,0,1,2.341-.593c1.779,0,2.684.936,2.684,2.808v2.5a11.066,11.066,0,0,0,.094,1.622Zm-.218-3.4c-1.685,0-2.528.406-2.528,1.373a.96.96,0,0,0,1.03,1.061,1.455,1.455,0,0,0,1.5-1.373Zm8.832,3.4-.062-1.092h-.031a2.3,2.3,0,0,1-2.185,1.248c-1.654,0-2.871-1.435-2.871-3.463,0-2.122,1.248-3.619,3-3.619a2.083,2.083,0,0,1,1.935.936h.031v-3.963h1.529v8.112c0,.655.031,1.279.062,1.841Zm-.218-3.994a1.646,1.646,0,0,0-1.592-1.779c-1.124,0-1.81,1-1.81,2.4,0,1.373.718,2.309,1.779,2.309a1.7,1.7,0,0,0,1.623-1.81Zm11.142,4.15a3.239,3.239,0,0,1-3.277-3.495,3.311,3.311,0,0,1,3.4-3.588,3.207,3.207,0,0,1,3.277,3.495A3.345,3.345,0,0,1,862.265,131.343Zm.062-5.991c-1.092,0-1.779,1.03-1.779,2.465,0,1.4.718,2.434,1.779,2.434s1.779-1.092,1.779-2.465C864.075,126.382,863.389,125.352,862.327,125.352Zm11.485,5.835h-1.529v-3.9c0-1.217-.468-1.81-1.373-1.81a1.556,1.556,0,0,0-1.5,1.654v4.056h-1.529v-4.867c0-.593,0-1.248-.062-1.935h1.342l.063,1.061h.031a2.478,2.478,0,0,1,2.154-1.186c1.436,0,2.372,1.092,2.372,2.871v4.056Zm10.174-5.679h-1.654v3.307c0,.842.281,1.248.874,1.248a3.976,3.976,0,0,0,.687-.062l.031,1.154a3.113,3.113,0,0,1-1.186.156c-1.186,0-1.9-.655-1.9-2.371v-3.432h-1v-1.123h1v-1.248l1.5-.437v1.685h1.654Zm8.021,5.679h-1.5v-3.869c0-1.217-.468-1.841-1.373-1.841a1.5,1.5,0,0,0-1.529,1.622v4.119h-1.5v-9.985h1.5v4.087h.031a2.28,2.28,0,0,1,2.06-1.123c1.436,0,2.31,1.123,2.31,2.9Zm8.208-3.027H895.66a1.967,1.967,0,0,0,2.154,2.028,5.691,5.691,0,0,0,1.841-.312l.25,1.061a5.714,5.714,0,0,1-2.278.406,3.172,3.172,0,0,1-3.4-3.432c0-2.091,1.28-3.651,3.215-3.651,1.748,0,2.84,1.279,2.84,3.245A2.568,2.568,0,0,1,900.216,128.16Zm-1.373-1.092c0-1.061-.531-1.81-1.5-1.81a1.786,1.786,0,0,0-1.654,1.81Z" transform="translate(-725.097 -111.779)" fill="#fff"/>
</svg>
