<svg id="responsive" xmlns="http://www.w3.org/2000/svg" xmlns:xlink="http://www.w3.org/1999/xlink" width="152.373" height="78.644" viewBox="0 0 152.373 78.644">
  <defs>
    <linearGradient id="linear-gradient" x1="0.5" x2="0.5" y2="1" gradientUnits="objectBoundingBox">
      <stop offset="0" stop-color="#896218"/>
      <stop offset="1" stop-color="#f6ce7b"/>
    </linearGradient>
  </defs>
  <path id="Path_912" data-name="Path 912" d="M176,353.83h29.492L203.034,344H178.458Z" transform="translate(-124.39 -277.644)" fill="#fedfa1"/>
  <path id="Path_913" data-name="Path 913" d="M33.2,182.695H16v19.661H40.576V190.068H114.3v12.288h44.237v-30.72a3.686,3.686,0,0,0-3.686-3.686H126.593V142.144A6.142,6.142,0,0,0,120.449,136h-81.1a6.142,6.142,0,0,0-6.144,6.144v33.178H36.89a3.686,3.686,0,0,1,3.686,3.686v3.686Z" transform="translate(-13.542 -133.542)" fill="#fff"/>
  <path id="Path_914" data-name="Path 914" d="M157.915,194.356h-2.458V166.093a6.15,6.15,0,0,0-6.144-6.144H123.508V136.6a8.611,8.611,0,0,0-8.6-8.6h-81.1a8.611,8.611,0,0,0-8.6,8.6v30.72H14.144A6.15,6.15,0,0,0,8,173.466V200.5a6.15,6.15,0,0,0,6.144,6.144h17.2a6.15,6.15,0,0,0,6.144-6.144v-3.686H58.919l-1.229,4.915H52.237a2.458,2.458,0,1,0,0,4.915H96.474a2.458,2.458,0,1,0,0-4.915H91.022l-1.229-4.915h11.6V200.5a6.15,6.15,0,0,0,6.144,6.144h46.695a6.15,6.15,0,0,0,6.144-6.144v-3.686A2.458,2.458,0,0,0,157.915,194.356Zm-8.6-29.492a1.229,1.229,0,0,1,1.229,1.229v28.263H111.22V166.093a1.229,1.229,0,0,1,1.229-1.229ZM32.576,200.5a1.229,1.229,0,0,1-1.229,1.229h-17.2a1.229,1.229,0,0,1-1.229-1.229v-1.229H32.576Zm0-6.144H12.915V179.61H32.576Zm0-19.661H12.915v-1.229a1.229,1.229,0,0,1,1.229-1.229h17.2a1.229,1.229,0,0,1,1.229,1.229Zm-1.229-7.373H30.119V136.6a3.69,3.69,0,0,1,3.686-3.686h81.1a3.69,3.69,0,0,1,3.686,3.686v23.347h-6.144a6.15,6.15,0,0,0-6.144,6.144v15.975H37.491v-8.6A6.15,6.15,0,0,0,31.347,167.322Zm31.412,34.407,1.229-4.915H84.724l1.229,4.915ZM37.491,191.9v-4.915H106.3V191.9Zm117.966,8.6a1.229,1.229,0,0,1-1.229,1.229H107.534A1.229,1.229,0,0,1,106.3,200.5v-1.229h49.152Z" transform="translate(-8 -128)" fill="url(#linear-gradient)"/>
</svg>
