<svg id="branding" xmlns="http://www.w3.org/2000/svg" xmlns:xlink="http://www.w3.org/1999/xlink" width="39.732" height="78.179" viewBox="0 0 39.732 78.179">
  <defs>
    <linearGradient id="linear-gradient" x1="5.676" y1="2.8" x2="3.012" y2="3.589" gradientUnits="objectBoundingBox">
      <stop offset="0" stop-color="#896218"/>
      <stop offset="1" stop-color="#f6ce7b"/>
    </linearGradient>
  </defs>
  <path id="Path_906" data-name="Path 906" d="M99.68,164.753H98.456v-8.106a2.356,2.356,0,0,0-2.356-2.356H94.311l6.711-18.081a7.647,7.647,0,0,0-.542-6.492L93.21,117.08a7.087,7.087,0,0,0-6.127-3.544H77.25a7.088,7.088,0,0,0-6.128,3.544l-7.27,12.637a7.651,7.651,0,0,0-.542,6.492l6.711,18.08H68.234a2.357,2.357,0,0,0-2.357,2.357v8.106H64.653a2.39,2.39,0,0,0-2.259,3.027L69,190.027a2.356,2.356,0,0,0,2.259,1.687h21.82a2.356,2.356,0,0,0,2.259-1.687l6.6-22.248A2.39,2.39,0,0,0,99.68,164.753ZM82.167,132.919a2.637,2.637,0,1,1-2.638,2.637A2.64,2.64,0,0,1,82.167,132.919Zm-14.438,1.65a2.95,2.95,0,0,1,.209-2.5l7.27-12.636c.9-1.57,3.081-1.181,4.6-1.181V128.6a7.35,7.35,0,1,0,4.713,0V118.249c1.587,0,3.6-.374,4.6,1.181l7.269,12.636a2.949,2.949,0,0,1,.209,2.5l-7.32,19.721H75.049ZM70.59,159H93.743v5.75H70.59Zm25.925,10.491L91.318,187h-6.8v-2.681c0-3.026-4.713-3.03-4.713,0V187h-6.8l-5.2-17.508Zm0,0" transform="translate(-62.3 -113.535)" fill="url(#linear-gradient)"/>
  <path id="Path_911" data-name="Path 911" d="M141.213,368.08a2.354,2.354,0,1,0,.731,3.137A2.381,2.381,0,0,0,141.213,368.08Zm0,0" transform="translate(-120.038 -308.531)" fill="url(#linear-gradient)"/>
</svg>
