<svg xmlns="http://www.w3.org/2000/svg" width="22.926" height="22.929" viewBox="0 0 22.926 22.929">
  <g id="XMLID_22_" transform="translate(0)">
    <path id="XMLID_143_" d="M24.314,29.211V29.7c0,2.74-4.6,4.961-10.277,4.961a16.412,16.412,0,0,1-7.822-1.745c.636,2.468,4.955,4.512,10.193,4.512,5.676,0,10.277-2.4,10.277-5.139,0-1.2-.892-2.266-2.372-3.079" transform="translate(-3.76 -17.665)" fill="#fcc62d"/>
    <path id="XMLID_142_" d="M16.28,42.139C10.6,42.139,6,39.74,6,37v3.339C6,43.079,10.6,45.3,16.28,45.3s10.277-2.221,10.277-4.961V37c0,2.74-4.6,5.139-10.277,5.139" transform="translate(-3.631 -22.375)" fill="#e4af18"/>
    <path id="XMLID_141_" d="M9,46.3a6.425,6.425,0,0,0,.791.611V43.634A6.568,6.568,0,0,1,9,43Z" transform="translate(-5.446 -26.003)" fill="#ce9912"/>
    <path id="XMLID_140_" d="M53,43.634v3.277a6.386,6.386,0,0,0,.791-.611V43a6.507,6.507,0,0,1-.791.634" transform="translate(-32.053 -26.003)" fill="#ce9912"/>
    <path id="XMLID_139_" d="M13,49.078q.375.194.791.367V46.206q-.415-.183-.791-.385Z" transform="translate(-7.864 -27.709)" fill="#ce9912"/>
    <path id="XMLID_138_" d="M49,49.444q.415-.173.791-.367V45.82q-.375.2-.791.385Z" transform="translate(-29.635 -27.709)" fill="#ce9912"/>
    <path id="XMLID_137_" d="M17,50.816q.383.131.791.245V47.853q-.407-.121-.791-.259Z" transform="translate(-10.283 -28.781)" fill="#ce9912"/>
    <path id="XMLID_136_" d="M45,51.061q.407-.114.791-.245V47.594q-.383.138-.791.259Z" transform="translate(-27.216 -28.781)" fill="#ce9912"/>
    <path id="XMLID_135_" d="M22,52.205c.258.052.522.1.791.14v-3.18c-.268-.045-.532-.094-.791-.15Z" transform="translate(-13.307 -29.641)" fill="#ce9912"/>
    <path id="XMLID_134_" d="M40,52.345c.268-.042.532-.089.791-.14V49.015c-.258.055-.522.105-.791.15Z" transform="translate(-24.192 -29.641)" fill="#ce9912"/>
    <path id="XMLID_133_" d="M28,53.055c.26.019.524.033.791.042V49.933c-.266-.01-.53-.025-.791-.045Z" transform="translate(-16.935 -30.169)" fill="#ce9912"/>
    <path id="XMLID_132_" d="M34,53.1c.266-.01.53-.023.791-.042V49.888c-.26.021-.524.035-.791.046Z" transform="translate(-20.564 -30.169)" fill="#ce9912"/>
    <path id="XMLID_131_" d="M10.28,27.132C4.6,27.132,0,24.733,0,21.993v3.339c0,2.74,4.6,4.961,10.277,4.961s10.277-2.221,10.277-4.961V21.993c0,2.74-4.6,5.139-10.277,5.139" transform="translate(-0.003 -13.3)" fill="#e4af18"/>
    <path id="XMLID_130_" d="M3,31.294a6.425,6.425,0,0,0,.791.611V28.627A6.605,6.605,0,0,1,3,27.994v3.3Z" transform="translate(-1.817 -16.929)" fill="#ce9912"/>
    <path id="XMLID_129_" d="M47,28.627V31.9a6.386,6.386,0,0,0,.791-.611v-3.3a6.507,6.507,0,0,1-.791.634" transform="translate(-28.425 -16.928)" fill="#ce9912"/>
    <path id="XMLID_128_" d="M7,34.071q.375.194.791.367V31.2q-.415-.183-.791-.385v3.257Z" transform="translate(-4.236 -18.634)" fill="#ce9912"/>
    <path id="XMLID_127_" d="M43,34.437q.415-.173.791-.367V30.813q-.375.2-.791.385Z" transform="translate(-26.006 -18.633)" fill="#ce9912"/>
    <path id="XMLID_126_" d="M11,35.809q.383.131.791.245V32.846q-.407-.121-.791-.259Z" transform="translate(-6.655 -19.706)" fill="#ce9912"/>
    <path id="XMLID_125_" d="M39,36.054q.407-.114.791-.245V32.587q-.383.138-.791.259Z" transform="translate(-23.587 -19.706)" fill="#ce9912"/>
    <path id="XMLID_124_" d="M16,37.2c.258.052.522.1.791.14v-3.18c-.268-.045-.532-.094-.791-.15Z" transform="translate(-9.679 -20.566)" fill="#ce9912"/>
    <path id="XMLID_123_" d="M34,37.339c.268-.042.532-.089.791-.14V34.009c-.258.055-.522.105-.791.15Z" transform="translate(-20.564 -20.566)" fill="#ce9912"/>
    <path id="XMLID_122_" d="M22,38.049c.26.019.524.033.791.042V34.927c-.266-.01-.53-.025-.791-.045Z" transform="translate(-13.307 -21.094)" fill="#ce9912"/>
    <path id="XMLID_121_" d="M28,38.09c.266-.01.53-.023.791-.042V34.881c-.26.021-.524.035-.791.046Z" transform="translate(-16.935 -21.093)" fill="#ce9912"/>
    <path id="XMLID_120_" d="M28.344,33.3c-1.058,2.2-5.135,3.833-10.007,3.833a19.4,19.4,0,0,1-5.011-.63,13.548,13.548,0,0,0,7.383,1.8c5.408,0,8.7-2.1,8.7-3.544A1.98,1.98,0,0,0,28.344,33.3" transform="translate(-8.06 -20.139)" fill="#ffd949"/>
    <path id="XMLID_119_" d="M12.256,21.992c-5.676,0-10.277-2.221-10.277-4.961V14.8A3.536,3.536,0,0,0,0,17.644c0,2.74,4.6,5.139,10.277,5.139a16.678,16.678,0,0,0,7.055-1.44,19.33,19.33,0,0,1-5.079.649" transform="translate(-0.003 -8.948)" fill="#ffd949"/>
    <path id="XMLID_118_" d="M15.28,17.132C9.6,17.132,5,14.733,5,11.993v3.339c0,2.74,4.6,4.961,10.277,4.961s10.277-2.221,10.277-4.961V11.993c0,2.74-4.6,5.139-10.277,5.139" transform="translate(-3.027 -7.252)" fill="#e4af18"/>
    <path id="XMLID_117_" d="M8,21.294a6.425,6.425,0,0,0,.791.611V18.627A6.605,6.605,0,0,1,8,17.994Z" transform="translate(-4.841 -10.881)" fill="#ce9912"/>
    <path id="XMLID_116_" d="M52,18.627V21.9a6.386,6.386,0,0,0,.791-.611v-3.3a6.506,6.506,0,0,1-.791.634" transform="translate(-31.449 -10.881)" fill="#ce9912"/>
    <path id="XMLID_115_" d="M12,24.071q.375.194.791.367V21.2q-.415-.183-.791-.385Z" transform="translate(-7.26 -12.587)" fill="#ce9912"/>
    <path id="XMLID_114_" d="M48,24.437q.415-.173.791-.367V20.813q-.375.2-.791.385Z" transform="translate(-29.03 -12.586)" fill="#ce9912"/>
    <path id="XMLID_113_" d="M16,25.809q.383.131.791.245V22.846q-.407-.121-.791-.259Z" transform="translate(-9.679 -13.659)" fill="#ce9912"/>
    <path id="XMLID_112_" d="M44,26.054q.407-.114.791-.245V22.587q-.383.138-.791.259Z" transform="translate(-26.611 -13.659)" fill="#ce9912"/>
    <path id="XMLID_111_" d="M21,27.2c.258.052.522.1.791.14v-3.18c-.268-.045-.532-.094-.791-.15Z" transform="translate(-12.702 -14.519)" fill="#ce9912"/>
    <path id="XMLID_110_" d="M39,27.339c.268-.042.532-.089.791-.14V24.009c-.258.055-.522.105-.791.15Z" transform="translate(-23.587 -14.519)" fill="#ce9912"/>
    <path id="XMLID_109_" d="M27,28.049c.26.019.524.033.791.042V24.927c-.266-.01-.53-.025-.791-.045Z" transform="translate(-16.331 -15.047)" fill="#ce9912"/>
    <path id="XMLID_108_" d="M33,28.09c.266-.01.53-.023.791-.042V24.881c-.26.021-.524.035-.791.046Z" transform="translate(-19.959 -15.046)" fill="#ce9912"/>
    <path id="XMLID_107_" d="M25.557,4.743c0,2.74-4.6,5.139-10.277,5.139S5,7.483,5,4.743,9.6,0,15.28,0,25.557,2,25.557,4.743" transform="translate(-3.027)" fill="#fcc62d"/>
    <path id="XMLID_106_" d="M17.7,10.1C12.291,10.1,9,8,9,6.557S12.291,3,17.7,3s8.7,2.113,8.7,3.557S23.107,10.1,17.7,10.1" transform="translate(-5.446 -1.814)" fill="#ffd949"/>
  </g>
</svg>
