<svg id="facebook_4_" data-name="facebook (4)" xmlns="http://www.w3.org/2000/svg" width="31.436" height="31.436" viewBox="0 0 31.436 31.436">
  <g id="Group_1415" data-name="Group 1415">
    <path id="Path_1314" data-name="Path 1314" d="M27.752,0H3.684A3.688,3.688,0,0,0,0,3.684V27.752a3.688,3.688,0,0,0,3.684,3.684H27.752a3.688,3.688,0,0,0,3.684-3.684V3.684A3.688,3.688,0,0,0,27.752,0ZM28.98,27.752a1.229,1.229,0,0,1-1.228,1.228h-7V18.972h3.794l.627-3.807H20.753v-2.64a1.811,1.811,0,0,1,1.842-1.842h2.517V6.877H22.594a5.648,5.648,0,0,0-5.647,5.659v2.629H13.262v3.807h3.685V28.98H3.684a1.229,1.229,0,0,1-1.228-1.228V3.684A1.229,1.229,0,0,1,3.684,2.456H27.752A1.229,1.229,0,0,1,28.98,3.684Z" fill="#fff"/>
  </g>
</svg>
