<svg xmlns="http://www.w3.org/2000/svg" width="35.258" height="35.265" viewBox="0 0 35.258 35.265">
  <g id="instagram_5_" data-name="instagram (5)" transform="translate(-0.449)">
    <path id="Path_1311" data-name="Path 1311" d="M35.617,10.368A12.886,12.886,0,0,0,34.8,6.09,9.034,9.034,0,0,0,29.638.93,12.919,12.919,0,0,0,25.36.11C23.472.021,22.873,0,18.085,0S12.7.021,10.817.1a12.89,12.89,0,0,0-4.278.82A8.6,8.6,0,0,0,3.411,2.962,8.682,8.682,0,0,0,1.379,6.083a12.921,12.921,0,0,0-.82,4.278c-.09,1.888-.11,2.487-.11,7.275s.021,5.387.1,7.268a12.885,12.885,0,0,0,.82,4.278,9.032,9.032,0,0,0,5.16,5.16,12.921,12.921,0,0,0,4.278.82c1.881.083,2.48.1,7.268.1s5.387-.02,7.268-.1a12.883,12.883,0,0,0,4.278-.82,9.02,9.02,0,0,0,5.16-5.16A12.929,12.929,0,0,0,35.6,24.9c.083-1.881.1-2.48.1-7.268s-.007-5.387-.09-7.268Zm-3.176,14.4a9.666,9.666,0,0,1-.606,3.272,5.85,5.85,0,0,1-3.348,3.348,9.7,9.7,0,0,1-3.272.606c-1.86.083-2.418.1-7.123.1s-5.27-.02-7.123-.1A9.661,9.661,0,0,1,7.7,31.387a5.426,5.426,0,0,1-2.025-1.316,5.483,5.483,0,0,1-1.316-2.025,9.7,9.7,0,0,1-.606-3.272c-.083-1.86-.1-2.418-.1-7.123s.02-5.27.1-7.123a9.661,9.661,0,0,1,.606-3.272A5.36,5.36,0,0,1,5.678,5.229,5.474,5.474,0,0,1,7.7,3.913a9.707,9.707,0,0,1,3.272-.606c1.86-.083,2.418-.1,7.123-.1s5.27.021,7.123.1a9.666,9.666,0,0,1,3.272.606,5.423,5.423,0,0,1,2.025,1.316,5.482,5.482,0,0,1,1.316,2.026,9.705,9.705,0,0,1,.606,3.272c.083,1.86.1,2.418.1,7.123s-.021,5.256-.1,7.117Zm0,0" fill="#fff"/>
    <path id="Path_1312" data-name="Path 1312" d="M134.008,124.5a9.059,9.059,0,1,0,9.059,9.059A9.061,9.061,0,0,0,134.008,124.5Zm0,14.936a5.876,5.876,0,1,1,5.876-5.876A5.877,5.877,0,0,1,134.008,139.436Zm0,0" transform="translate(-115.923 -115.923)" fill="#fff"/>
    <path id="Path_1313" data-name="Path 1313" d="M366.68,90.717a2.115,2.115,0,1,1-2.115-2.115,2.115,2.115,0,0,1,2.115,2.115Zm0,0" transform="translate(-337.063 -82.498)" fill="#fff"/>
  </g>
</svg>
