<svg xmlns="http://www.w3.org/2000/svg" xmlns:xlink="http://www.w3.org/1999/xlink" width="146" height="33.447" viewBox="0 0 146 33.447">
  <defs>
    <linearGradient id="linear-gradient" x1="0.5" x2="0.5" y2="1" gradientUnits="objectBoundingBox">
      <stop offset="0" stop-color="#896218"/>
      <stop offset="0.192" stop-color="#af8534"/>
      <stop offset="1" stop-color="#f6da92"/>
    </linearGradient>
  </defs>
  <g id="KDA-01" transform="translate(-355.61 -176.727)">
    <g id="Group_1416" data-name="Group 1416">
      <g id="Group_854" data-name="Group 854" transform="translate(400.145 204.152)">
        <path id="Path_957" data-name="Path 957" d="M724.33,926.61h2.559a3.671,3.671,0,0,1,1.664.364A2.7,2.7,0,0,1,729.683,928a3.134,3.134,0,0,1,0,3.068,2.7,2.7,0,0,1-1.129,1.029,3.671,3.671,0,0,1-1.664.364H724.33Zm2.509,4.934a2.488,2.488,0,0,0,1.133-.246,1.759,1.759,0,0,0,.752-.7,2.257,2.257,0,0,0,0-2.116,1.766,1.766,0,0,0-.752-.7,2.488,2.488,0,0,0-1.133-.246h-1.422v4.014h1.422Z" transform="translate(-724.33 -926.525)" fill="url(#linear-gradient)"/>
        <path id="Path_958" data-name="Path 958" d="M813.37,926.61h1.087v5.853H813.37Z" transform="translate(-802.615 -926.525)" fill="url(#linear-gradient)"/>
        <path id="Path_959" data-name="Path 959" d="M868.255,928.855h1.029v2.333a3.278,3.278,0,0,1-1.053.552,4.047,4.047,0,0,1-1.238.192,3.332,3.332,0,0,1-1.614-.389,2.887,2.887,0,0,1-1.129-1.075,3.128,3.128,0,0,1,0-3.094,2.889,2.889,0,0,1,1.133-1.075,3.374,3.374,0,0,1,1.627-.389,3.553,3.553,0,0,1,1.338.243,2.634,2.634,0,0,1,1.012.71l-.686.669a2.2,2.2,0,0,0-1.614-.669,2.277,2.277,0,0,0-1.1.26,1.888,1.888,0,0,0-.752.727,2.1,2.1,0,0,0-.272,1.07,2.058,2.058,0,0,0,.272,1.053,1.941,1.941,0,0,0,.752.736,2.2,2.2,0,0,0,1.092.268,2.358,2.358,0,0,0,1.2-.3v-1.821Z" transform="translate(-846.99 -925.91)" fill="url(#linear-gradient)"/>
        <path id="Path_960" data-name="Path 960" d="M952.59,926.61h1.087v5.853H952.59Z" transform="translate(-925.02 -926.525)" fill="url(#linear-gradient)"/>
        <path id="Path_961" data-name="Path 961" d="M1002.23,927.53h-1.94v-.92h4.967v.92h-1.94v4.934h-1.087Z" transform="translate(-966.959 -926.525)" fill="url(#linear-gradient)"/>
        <path id="Path_962" data-name="Path 962" d="M1075.395,931.118h-2.927l-.577,1.355h-1.121l2.634-5.853h1.07l2.643,5.853h-1.138Zm-.36-.853-1.1-2.559-1.1,2.559Z" transform="translate(-1028.926 -926.534)" fill="url(#linear-gradient)"/>
        <path id="Path_963" data-name="Path 963" d="M1161.33,926.61h1.087v4.934h3.061v.92h-4.148Z" transform="translate(-1108.548 -926.525)" fill="url(#linear-gradient)"/>
      </g>
    </g>
    <g id="Group_1415" data-name="Group 1415">
      <g id="Group_855" data-name="Group 855" transform="translate(355.61 176.727)">
        <path id="Path_964" data-name="Path 964" d="M501.61,715.517h-1.819l-5.906-12.789-5.906,12.789h-1.819l7.725-16.662Zm-81.061,0h1.819l5.906-12.789,5.906,12.789H436l-7.725-16.662Zm-42.435,0h1.819l5.906-12.789,5.906,12.789h1.819l-7.725-16.662Zm76.348-8.335a4.576,4.576,0,0,0-2.617-8.33h-6.666V700.5h6.666a2.93,2.93,0,0,1,.006,5.859h-6.673v1.649h6.67a2.93,2.93,0,0,1,0,5.859h-6.666v1.649h6.666a4.579,4.579,0,0,0,2.619-8.334Zm17.971.823a4.576,4.576,0,1,0,0-9.153h-6.666V700.5h6.666a2.928,2.928,0,1,1,0,5.856h-6.253l8.415,9.158h2.456l-6.9-7.509Zm-58.347-.819a8.33,8.33,0,0,1-8.332,8.328h-2.992V698.85h2.991A8.334,8.334,0,0,1,414.087,707.185Zm-1.649,0a6.691,6.691,0,0,0-6.683-6.685h-1.342v13.368h1.342A6.7,6.7,0,0,0,412.438,707.185Zm-56.828,8.332h1.649V698.854H355.61Zm10.9-16.667-.243.24-8.088,8.091,8.332,8.332h2.332l-8.332-8.332,8.411-8.332Z" transform="translate(-355.61 -698.85)" fill="url(#linear-gradient)"/>
      </g>
    </g>
  </g>
</svg>
