<svg xmlns="http://www.w3.org/2000/svg" xmlns:xlink="http://www.w3.org/1999/xlink" width="106.107" height="113.22" viewBox="0 0 106.107 113.22">
  <defs>
    <linearGradient id="linear-gradient" x1="0.074" y1="1.045" x2="1.154" y2="0.033" gradientUnits="objectBoundingBox">
      <stop offset="0" stop-color="#896218"/>
      <stop offset="0.518" stop-color="#f6ce7b"/>
      <stop offset="1" stop-color="#fedfa1"/>
    </linearGradient>
  </defs>
  <path id="tripod_1_" data-name="tripod (1)" d="M129.035,112.927l-2.694-4.771a1.826,1.826,0,0,0,.692-2.488L112.671,80.223a1.826,1.826,0,0,0-2.488-.692l-.071.039-26.5-42.353h7.309a1.826,1.826,0,0,0,1.826-1.826v-7.3a1.826,1.826,0,0,0-1.826-1.826H81.791V22.609h7.3a1.826,1.826,0,0,0,1.826-1.826V17.131h1.826v1.826a1.826,1.826,0,0,0,1.826,1.826h16.435a5.478,5.478,0,1,0,0-10.957H94.574a1.826,1.826,0,0,0-1.826,1.826v1.826H90.922V9.826A1.826,1.826,0,0,0,89.1,8H63.53A1.826,1.826,0,0,0,61.7,9.826V20.783a1.826,1.826,0,0,0,1.826,1.826h7.3v3.652H61.7a1.826,1.826,0,0,0-1.826,1.826v7.3A1.826,1.826,0,0,0,61.7,37.218h7.117l-26.5,42.353-.071-.039a1.826,1.826,0,0,0-2.486.692L25.4,105.668a1.826,1.826,0,0,0,.694,2.488L23.4,112.927a1.826,1.826,0,0,0,.692,2.488l6.362,3.591a1.828,1.828,0,0,0,2.488-.694l2.694-4.769a1.828,1.828,0,0,0,2.488-.694L52.486,87.4a1.822,1.822,0,0,0-.6-2.429L70.834,55.507V81.045a1.826,1.826,0,0,0-1.826,1.826v29.218a1.826,1.826,0,0,0,1.826,1.826v5.478a1.826,1.826,0,0,0,1.826,1.826h7.3a1.826,1.826,0,0,0,1.826-1.826v-5.478a1.826,1.826,0,0,0,1.826-1.826V82.871a1.826,1.826,0,0,0-1.826-1.826V55.8L100.55,84.976a1.823,1.823,0,0,0-.6,2.429l14.363,25.445a1.826,1.826,0,0,0,1.1.863,1.9,1.9,0,0,0,.491.066,1.835,1.835,0,0,0,.9-.235l2.694,4.768a1.827,1.827,0,0,0,2.488.694l6.36-3.591A1.826,1.826,0,0,0,129.035,112.927ZM96.4,13.478h14.609a1.826,1.826,0,1,1,0,3.652H96.4ZM65.356,18.957v-7.3H87.269v7.3Zm12.783,3.652v3.652H74.487V22.609ZM30.659,114.927l-3.18-1.794,1.794-3.182,1.591.9,1.589.9Zm5.182-5.462-6.362-3.591L42.048,83.611l6.36,3.591Zm34.993-60.71L48.7,83.173l-1.943-1.1-1.253-.705L70.834,40.889Zm7.3,68.813H74.487v-3.652h3.652Zm1.826-7.3h-7.3V84.7h7.3ZM74.487,81.045V37.218h3.652V81.045ZM63.53,33.566V29.914H89.1v3.652ZM81.791,49.051V41.192L106.93,81.369l-1.746.984-1.452.819Zm34.8,60.413L104.026,87.2l6.362-3.591,12.568,22.263Zm5.182,5.462-1.8-3.18,1.591-.9,1.591-.9,1.794,3.182Z" transform="translate(-23.164 -8)" fill="url(#linear-gradient)"/>
</svg>
