<svg xmlns="http://www.w3.org/2000/svg" xmlns:xlink="http://www.w3.org/1999/xlink" width="70.029" height="44.787" viewBox="0 0 70.029 44.787">
  <defs>
    <linearGradient id="linear-gradient" x1="1.205" y1="0.5" x2="-0.076" y2="0.76" gradientUnits="objectBoundingBox">
      <stop offset="0" stop-color="#fff"/>
      <stop offset="1" stop-color="#feb85e"/>
    </linearGradient>
  </defs>
  <path id="crown" d="M70.029,11.806a6.663,6.663,0,1,0-11.508,4.567A10.92,10.92,0,0,1,39.692,11.4a6.664,6.664,0,1,0-9.355,0,10.92,10.92,0,0,1-18.829,4.969,6.66,6.66,0,1,0-6.272,1.941c.709,5.851,2.211,13.235,5.388,18.258v6.152a2.063,2.063,0,0,0,2.062,2.063H57.343a2.063,2.063,0,0,0,2.062-2.063V36.571c3.177-5.023,4.679-12.406,5.388-18.258a6.673,6.673,0,0,0,5.236-6.508Zm-9.2,0a2.539,2.539,0,1,1,2.538,2.538A2.542,2.542,0,0,1,60.827,11.806ZM32.476,6.663A2.539,2.539,0,1,1,35.014,9.2a2.542,2.542,0,0,1-2.539-2.538ZM4.124,11.806a2.539,2.539,0,1,1,2.539,2.538A2.542,2.542,0,0,1,4.124,11.806ZM14.748,40.661V38.021H55.281v2.641ZM56.21,33.9H13.82C11.649,30.213,10.4,25.04,9.687,20.372a15.046,15.046,0,0,0,24.434-7.106,6.525,6.525,0,0,0,1.787,0,15.045,15.045,0,0,0,24.437,7.1c-.714,4.668-1.961,9.84-4.135,13.527Zm0,0" transform="translate(0)" fill="url(#linear-gradient)"/>
</svg>
