<svg xmlns="http://www.w3.org/2000/svg" xmlns:xlink="http://www.w3.org/1999/xlink" width="69.286" height="44.311" viewBox="0 0 69.286 44.311">
  <defs>
    <linearGradient id="linear-gradient" x1="1.205" y1="0.5" x2="-0.076" y2="0.76" gradientUnits="objectBoundingBox">
      <stop offset="0" stop-color="#fff"/>
      <stop offset="1" stop-color="#e5e4e2"/>
    </linearGradient>
  </defs>
  <path id="crown" d="M69.286,11.681A6.593,6.593,0,1,0,57.9,16.2a10.8,10.8,0,0,1-18.629-4.917,6.593,6.593,0,1,0-9.256,0A10.8,10.8,0,0,1,11.386,16.2a6.589,6.589,0,1,0-6.206,1.92c.7,5.789,2.187,13.095,5.331,18.064V42.27a2.041,2.041,0,0,0,2.04,2.041H56.734a2.041,2.041,0,0,0,2.04-2.041V36.183c3.143-4.969,4.629-12.274,5.331-18.064a6.6,6.6,0,0,0,5.18-6.438Zm-9.1,0a2.512,2.512,0,1,1,2.511,2.511A2.515,2.515,0,0,1,60.182,11.681ZM32.131,6.593A2.512,2.512,0,1,1,34.643,9.1a2.515,2.515,0,0,1-2.512-2.511ZM4.081,11.681a2.512,2.512,0,1,1,2.512,2.511A2.515,2.515,0,0,1,4.081,11.681ZM14.592,40.23V37.617h40.1V40.23Zm41.022-6.694H13.673c-2.148-3.643-3.381-8.761-4.088-13.38a14.886,14.886,0,0,0,24.175-7.031,6.456,6.456,0,0,0,1.768,0A14.886,14.886,0,0,0,59.7,20.152c-.707,4.618-1.94,9.736-4.091,13.383Zm0,0" transform="translate(0 0)" fill="url(#linear-gradient)"/>
</svg>
