<svg id="bullhorn" xmlns="http://www.w3.org/2000/svg" xmlns:xlink="http://www.w3.org/1999/xlink" width="81.074" height="82.425" viewBox="0 0 81.074 82.425">
  <defs>
    <linearGradient id="linear-gradient" x1="0.5" x2="0.5" y2="1" gradientUnits="objectBoundingBox">
      <stop offset="0" stop-color="#896218"/>
      <stop offset="1" stop-color="#f6ce7b"/>
    </linearGradient>
  </defs>
  <path id="Path_932" data-name="Path 932" d="M49.293,61.727h-2.7V48.485a1.351,1.351,0,1,0-2.7,0V61.727H8.756V34.7H20A1.351,1.351,0,1,0,20,32H7.4a1.351,1.351,0,0,0-1.351,1.351V61.727h-2.7A1.351,1.351,0,0,0,2,63.078v2.7a6.756,6.756,0,0,0,6.756,6.756H43.888a6.756,6.756,0,0,0,6.756-6.756v-2.7A1.351,1.351,0,0,0,49.293,61.727Zm-1.351,4.054a4.054,4.054,0,0,1-4.054,4.054h-2.7V68.483a1.351,1.351,0,0,0-2.7,0v1.351H14.161V68.483a1.351,1.351,0,0,0-2.7,0v1.351h-2.7A4.054,4.054,0,0,1,4.7,65.781V64.43H47.942Z" transform="translate(-2 9.888)" fill="url(#linear-gradient)"/>
  <path id="Path_933" data-name="Path 933" d="M55.756,8.7h2.7a1.351,1.351,0,0,0,0-2.7h-2.7A4.054,4.054,0,0,0,51.7,10.054V11.4H50.351a1.351,1.351,0,1,0,0,2.7H51.7v4.054a1.351,1.351,0,1,0,2.7,0V14.107h1.351a1.351,1.351,0,1,0,0-2.7H54.4V10.054A1.351,1.351,0,0,1,55.756,8.7Z" transform="translate(14.508 0.756)" fill="url(#linear-gradient)"/>
  <path id="Path_934" data-name="Path 934" d="M64.268,2H48.054A4.054,4.054,0,0,0,44,6.054v2.7a1.351,1.351,0,1,0,2.7,0v-2.7A1.351,1.351,0,0,1,48.054,4.7H64.268A1.351,1.351,0,0,1,65.62,6.054V22.268a1.351,1.351,0,0,1-1.351,1.351H48.054A1.351,1.351,0,0,1,46.7,22.268V14.161a1.351,1.351,0,1,0-2.7,0v8.107a4.054,4.054,0,0,0,4.054,4.054H64.268a4.054,4.054,0,0,0,4.054-4.054V6.054A4.054,4.054,0,0,0,64.268,2Z" transform="translate(12.752 -0.649)" fill="url(#linear-gradient)"/>
  <path id="Path_935" data-name="Path 935" d="M49,43.4A5.4,5.4,0,1,0,54.4,38,5.4,5.4,0,0,0,49,43.4Zm8.107,0a2.7,2.7,0,1,1-2.7-2.7A2.7,2.7,0,0,1,57.107,43.4Z" transform="translate(14.508 11.996)" fill="url(#linear-gradient)"/>
  <path id="Path_936" data-name="Path 936" d="M64.268,33H48.054A4.054,4.054,0,0,0,44,37.054V53.268a4.054,4.054,0,0,0,4.054,4.054H64.268a4.054,4.054,0,0,0,4.054-4.054v-2.7a1.351,1.351,0,1,0-2.7,0v2.7a1.351,1.351,0,0,1-1.351,1.351H48.054A1.351,1.351,0,0,1,46.7,53.268V37.054A1.351,1.351,0,0,1,48.054,35.7H64.268a1.351,1.351,0,0,1,1.351,1.351v8.107a1.351,1.351,0,1,0,2.7,0V37.054A4.054,4.054,0,0,0,64.268,33Z" transform="translate(12.752 10.239)" fill="url(#linear-gradient)"/>
  <path id="Path_937" data-name="Path 937" d="M24.635,16.606a1.344,1.344,0,0,0,1.324.054l8.107-4.054a1.351,1.351,0,0,0,0-2.405L25.959,6.148A1.351,1.351,0,0,0,24,7.35v8.107A1.351,1.351,0,0,0,24.635,16.606ZM26.7,9.539,30.432,11.4,26.7,13.269Z" transform="translate(5.727 0.757)" fill="url(#linear-gradient)"/>
  <path id="Path_938" data-name="Path 938" d="M30.161,25.322A12.161,12.161,0,1,0,18,13.161,12.161,12.161,0,0,0,30.161,25.322Zm0-21.62A9.459,9.459,0,1,1,20.7,13.161,9.459,9.459,0,0,1,30.161,3.7Z" transform="translate(3.62 -1)" fill="url(#linear-gradient)"/>
  <path id="Path_939" data-name="Path 939" d="M37.351,25.107a1.351,1.351,0,0,0,1.081-.54l4.054-5.4a1.351,1.351,0,1,0-2.162-1.621l-4.054,5.4a1.351,1.351,0,0,0,1.081,2.162Z" transform="translate(9.942 4.62)" fill="url(#linear-gradient)"/>
  <path id="Path_940" data-name="Path 940" d="M39.27,28.216a1.351,1.351,0,0,0,1.892.27l5.4-4.054a1.351,1.351,0,1,0-1.621-2.162l-5.4,4.054A1.351,1.351,0,0,0,39.27,28.216Z" transform="translate(10.996 6.376)" fill="url(#linear-gradient)"/>
  <path id="Path_941" data-name="Path 941" d="M51.5,29.089a1.351,1.351,0,0,0-1.621-1.081l-6.756,1.351a1.358,1.358,0,0,0,.27,2.7h.27l6.756-1.351A1.351,1.351,0,0,0,51.5,29.089Z" transform="translate(12.012 8.475)" fill="url(#linear-gradient)"/>
  <path id="Path_942" data-name="Path 942" d="M3.351,35.322H19.566a1.351,1.351,0,0,0,1.351-1.351V12.351A1.351,1.351,0,0,0,19.566,11H3.351A1.351,1.351,0,0,0,2,12.351v21.62A1.351,1.351,0,0,0,3.351,35.322ZM4.7,13.7H18.215V32.62H4.7Z" transform="translate(-2 2.512)" fill="url(#linear-gradient)"/>
  <path id="Path_943" data-name="Path 943" d="M12.054,15h-2.7a1.351,1.351,0,1,0,0,2.7h2.7a1.351,1.351,0,1,0,0-2.7Z" transform="translate(0.107 3.917)" fill="url(#linear-gradient)"/>
  <path id="Path_944" data-name="Path 944" d="M12.756,19h-5.4a1.351,1.351,0,1,0,0,2.7h5.4a1.351,1.351,0,1,0,0-2.7Z" transform="translate(-0.595 5.322)" fill="url(#linear-gradient)"/>
  <path id="Path_945" data-name="Path 945" d="M12.756,23h-5.4a1.351,1.351,0,0,0,0,2.7h5.4a1.351,1.351,0,0,0,0-2.7Z" transform="translate(-0.595 6.727)" fill="url(#linear-gradient)"/>
  <path id="Path_946" data-name="Path 946" d="M45.633,30.7a1.356,1.356,0,0,0-2.351,1.351l5.959,10.31L27.622,50.47h-.2L23.906,52.5l-2.338,1.351a2.7,2.7,0,0,1-3.689-.986l-2.7-4.675a2.7,2.7,0,0,1,1.013-3.567l4.675-2.7,3.378,5.851a1.356,1.356,0,1,0,2.351-1.351l-3.486-6.026L40.066,26.4l.554.959a1.356,1.356,0,0,0,2.351-1.351L41.62,23.675a1.369,1.369,0,0,0-2.04-.365L20.663,38.9l-5.756,3.324a5.4,5.4,0,0,0-2.486,6.121l-1.351.77A4.051,4.051,0,0,0,13.1,56.685a4.135,4.135,0,0,0,2.027-.541l1.351-.77a5.243,5.243,0,0,0,2.365,1.405,5.121,5.121,0,0,0,1.419.189,5.324,5.324,0,0,0,2.7-.73l1.176-.676,2.7,4.689A4.05,4.05,0,1,0,33.851,56.2l-2.459-4.283L51.66,44.308a1.355,1.355,0,0,0,.7-1.932ZM13.717,53.794a1.35,1.35,0,1,1-1.351-2.338l1.176-.676,1.351,2.338ZM31.5,57.577a1.35,1.35,0,0,1-2.338,1.351l-2.7-4.689L28.7,52.956h.108Z" transform="translate(0.471 6.728)" fill="url(#linear-gradient)"/>
</svg>
