<svg id="binocular" xmlns="http://www.w3.org/2000/svg" xmlns:xlink="http://www.w3.org/1999/xlink" width="181.15" height="146.724" viewBox="0 0 181.15 146.724">
  <defs>
    <linearGradient id="linear-gradient" x1="3.1" y1="1.475" x2="2.749" y2="3.731" gradientUnits="objectBoundingBox">
      <stop offset="0" stop-color="#f6ce7b"/>
      <stop offset="0.372" stop-color="#cda656"/>
      <stop offset="0.686" stop-color="#c19a4b"/>
      <stop offset="1" stop-color="#896218"/>
    </linearGradient>
  </defs>
  <path id="Path_893" data-name="Path 893" d="M49.556,135.277l7.761-31.972a27.718,27.718,0,0,1,48.766-10.587A28.245,28.245,0,0,0,50.448,88.1L36.3,146.376a43.636,43.636,0,0,1,13.256-11.1Z" transform="translate(-30.764 -66.464)" fill="url(#linear-gradient)"/>
  <path id="Path_894" data-name="Path 894" d="M112.364,116.839A23.8,23.8,0,0,0,89.188,135.1l-7.026,28.946a43.561,43.561,0,0,1,55.917,22.508,12.451,12.451,0,0,0,11.318,7.432,12.283,12.283,0,0,0,11.276-7.339,43.486,43.486,0,0,1,39.681-25.795c.077,0,.182,0,.26,0a42.469,42.469,0,0,1,16.23,3.331l-7.053-29.065a23.832,23.832,0,0,0-45.867-1.644,13.456,13.456,0,0,1-12.785,9.362h-3.292a13.457,13.457,0,0,1-12.784-9.362A23.873,23.873,0,0,0,112.364,116.839ZM94.528,152.733l-.709,2.921a1.935,1.935,0,1,1-3.761-.913l.709-2.92a1.935,1.935,0,0,1,3.761.913Zm16-26.142a24.044,24.044,0,0,0-13.6,16.243l-.49,2.021a1.935,1.935,0,0,1-3.761-.913l.491-2.021a27.938,27.938,0,0,1,15.8-18.875,1.936,1.936,0,0,1,1.559,3.543Zm31.1,26.307h15.638a7.161,7.161,0,0,1,0,14.321H141.63a7.161,7.161,0,0,1,0-14.321Z" transform="translate(-58.874 -97.34)" fill="url(#linear-gradient)"/>
  <path id="Path_895" data-name="Path 895" d="M61.623,319.88a39.6,39.6,0,0,0,28.208-11.7,32.452,32.452,0,0,1,45.606.123A39.633,39.633,0,0,0,163.3,319.88h.213A39.1,39.1,0,0,0,191.6,307.949a39.77,39.77,0,0,0,11.532-29.03,38.892,38.892,0,0,0-12.055-26.987,39.281,39.281,0,0,0-63.646,12.1,16.283,16.283,0,0,1-29.761-.082,39.654,39.654,0,0,0-64.034-11.9,39.075,39.075,0,0,0-9.571,15.289l-.2.832-.063-.015a39.926,39.926,0,0,0,9.861,40.074A39.234,39.234,0,0,0,61.622,319.88Zm101.9-68.748A28.767,28.767,0,1,1,134.847,279.9,28.766,28.766,0,0,1,163.522,251.132Zm-101.9.031A28.735,28.735,0,1,1,32.942,279.9a28.735,28.735,0,0,1,28.679-28.735Z" transform="translate(-21.997 -173.156)" fill="url(#linear-gradient)"/>
  <path id="Path_896" data-name="Path 896" d="M230.59,226.58h15.637a3.29,3.29,0,1,0,0-6.58H230.59a3.29,3.29,0,1,0,0,6.58Z" transform="translate(-147.834 -160.571)" fill="url(#linear-gradient)"/>
  <ellipse id="Ellipse_19" data-name="Ellipse 19" cx="24.809" cy="24.864" rx="24.809" ry="24.864" transform="translate(14.815 81.879)" fill="url(#linear-gradient)"/>
  <ellipse id="Ellipse_20" data-name="Ellipse 20" cx="24.805" cy="24.895" rx="24.805" ry="24.895" transform="translate(116.72 81.848)" fill="url(#linear-gradient)"/>
  <path id="Path_897" data-name="Path 897" d="M317.478,82.092a27.663,27.663,0,0,1,26.937,21.214l7.819,32.2a45.531,45.531,0,0,1,13.348,11.482l-14.3-58.9a28.245,28.245,0,0,0-55.635,4.623A27.631,27.631,0,0,1,317.478,82.092Z" transform="translate(-189.727 -66.464)" fill="url(#linear-gradient)"/>
</svg>
