<svg xmlns="http://www.w3.org/2000/svg" xmlns:xlink="http://www.w3.org/1999/xlink" width="67.754" height="43.332" viewBox="0 0 67.754 43.332">
  <defs>
    <linearGradient id="linear-gradient" x1="1.205" y1="0.5" x2="-0.076" y2="0.76" gradientUnits="objectBoundingBox">
      <stop offset="0" stop-color="#fff"/>
      <stop offset="1" stop-color="#ffd814"/>
    </linearGradient>
  </defs>
  <path id="crown" d="M67.754,11.422a6.447,6.447,0,1,0-11.135,4.419A10.565,10.565,0,0,1,38.4,11.033a6.447,6.447,0,1,0-9.051,0,10.565,10.565,0,0,1-18.217,4.808,6.443,6.443,0,1,0-6.069,1.877C5.752,23.38,7.2,30.524,10.278,35.383v5.952a2,2,0,0,0,2,2H55.48a2,2,0,0,0,2-2V35.383c3.074-4.86,4.527-12,5.213-17.665a6.457,6.457,0,0,0,5.066-6.3Zm-8.9,0a2.456,2.456,0,1,1,2.456,2.456A2.459,2.459,0,0,1,58.851,11.422ZM31.42,6.447A2.456,2.456,0,1,1,33.877,8.9,2.459,2.459,0,0,1,31.42,6.447ZM3.99,11.422a2.456,2.456,0,1,1,2.456,2.456A2.459,2.459,0,0,1,3.99,11.422ZM14.269,39.34V36.785H53.485V39.34Zm40.115-6.546H13.371c-2.1-3.563-3.306-8.568-4-13.084a14.557,14.557,0,0,0,23.64-6.876,6.313,6.313,0,0,0,1.729,0,14.557,14.557,0,0,0,23.643,6.873c-.691,4.516-1.9,9.521-4,13.087Zm0,0" transform="translate(0)" fill="url(#linear-gradient)"/>
</svg>
